<mxfile host="app.diagrams.net" modified="2022-05-21T01:05:48.957Z" agent="5.0 (Windows)" etag="HDOI_wlZocTAWREQHTjw" version="18.0.8" type="github">
  <diagram id="12oCROdWaPfmY8l000qh" name="Page-1">
    <mxGraphModel dx="2200" dy="853" grid="1" gridSize="10" guides="1" tooltips="1" connect="1" arrows="1" fold="1" page="1" pageScale="1" pageWidth="827" pageHeight="1169" math="0" shadow="0">
      <root>
        <mxCell id="0" />
        <mxCell id="1" parent="0" />
        <mxCell id="PWxaWAXkfzLJMrjovWpR-1" value="" style="rounded=0;whiteSpace=wrap;html=1;fillColor=none;" vertex="1" parent="1">
          <mxGeometry x="40" y="40" width="1520" height="900" as="geometry" />
        </mxCell>
        <mxCell id="PWxaWAXkfzLJMrjovWpR-2" value="" style="rounded=0;whiteSpace=wrap;html=1;fillColor=#000000;" vertex="1" parent="1">
          <mxGeometry x="40" y="740" width="1520" height="200" as="geometry" />
        </mxCell>
        <mxCell id="PWxaWAXkfzLJMrjovWpR-3" value="" style="rounded=0;whiteSpace=wrap;html=1;fillColor=#FFFFFF;" vertex="1" parent="1">
          <mxGeometry x="40" y="40" width="1520" height="90" as="geometry" />
        </mxCell>
        <mxCell id="PWxaWAXkfzLJMrjovWpR-4" value="&lt;b&gt;&lt;font style=&quot;font-size: 24px;&quot;&gt;BLACK DIAMOND&lt;/font&gt;&lt;/b&gt;" style="text;html=1;strokeColor=none;fillColor=none;align=center;verticalAlign=middle;whiteSpace=wrap;rounded=0;" vertex="1" parent="1">
          <mxGeometry x="60" y="100" width="240" height="30" as="geometry" />
        </mxCell>
        <mxCell id="PWxaWAXkfzLJMrjovWpR-5" value="&lt;span style=&quot;background-color: rgb(0, 0, 0);&quot;&gt;&lt;font style=&quot;font-size: 36px;&quot; color=&quot;#FFFFFF&quot;&gt;XXXXXXX&lt;/font&gt;&lt;/span&gt;" style="text;html=1;strokeColor=none;fillColor=none;align=center;verticalAlign=middle;whiteSpace=wrap;rounded=0;" vertex="1" parent="1">
          <mxGeometry x="90" y="760" width="240" height="30" as="geometry" />
        </mxCell>
        <mxCell id="PWxaWAXkfzLJMrjovWpR-9" value="Busqueda" style="text;html=1;strokeColor=none;fillColor=none;align=center;verticalAlign=middle;whiteSpace=wrap;rounded=0;fontSize=15;" vertex="1" parent="1">
          <mxGeometry x="1140" y="60" width="60" height="30" as="geometry" />
        </mxCell>
        <mxCell id="PWxaWAXkfzLJMrjovWpR-10" value="Mi cuenta" style="text;html=1;strokeColor=none;fillColor=none;align=center;verticalAlign=middle;whiteSpace=wrap;rounded=0;fontSize=15;" vertex="1" parent="1">
          <mxGeometry x="1280" y="60" width="70" height="30" as="geometry" />
        </mxCell>
        <mxCell id="PWxaWAXkfzLJMrjovWpR-11" value="Carrito" style="text;html=1;strokeColor=none;fillColor=none;align=center;verticalAlign=middle;whiteSpace=wrap;rounded=0;fontSize=15;" vertex="1" parent="1">
          <mxGeometry x="1410" y="60" width="60" height="30" as="geometry" />
        </mxCell>
        <mxCell id="PWxaWAXkfzLJMrjovWpR-12" value="Todos" style="text;strokeColor=none;fillColor=none;html=1;fontSize=24;fontStyle=1;verticalAlign=middle;align=center;" vertex="1" parent="1">
          <mxGeometry x="390" y="80" width="100" height="40" as="geometry" />
        </mxCell>
        <mxCell id="PWxaWAXkfzLJMrjovWpR-13" value="Camisetas" style="text;strokeColor=none;fillColor=none;html=1;fontSize=24;fontStyle=1;verticalAlign=middle;align=center;" vertex="1" parent="1">
          <mxGeometry x="510.5" y="80" width="100" height="40" as="geometry" />
        </mxCell>
        <mxCell id="PWxaWAXkfzLJMrjovWpR-14" value="Sudaderas" style="text;strokeColor=none;fillColor=none;html=1;fontSize=24;fontStyle=1;verticalAlign=middle;align=center;" vertex="1" parent="1">
          <mxGeometry x="654.5" y="80" width="100" height="40" as="geometry" />
        </mxCell>
        <mxCell id="PWxaWAXkfzLJMrjovWpR-15" value="Jeans" style="text;strokeColor=none;fillColor=none;html=1;fontSize=24;fontStyle=1;verticalAlign=middle;align=center;" vertex="1" parent="1">
          <mxGeometry x="770" y="80" width="100" height="40" as="geometry" />
        </mxCell>
        <mxCell id="PWxaWAXkfzLJMrjovWpR-16" value="Gorras" style="text;strokeColor=none;fillColor=none;html=1;fontSize=24;fontStyle=1;verticalAlign=middle;align=center;" vertex="1" parent="1">
          <mxGeometry x="880" y="80" width="100" height="40" as="geometry" />
        </mxCell>
        <mxCell id="PWxaWAXkfzLJMrjovWpR-17" value="&lt;font color=&quot;#ff1212&quot;&gt;Sale&lt;/font&gt;" style="text;strokeColor=none;fillColor=none;html=1;fontSize=24;fontStyle=1;verticalAlign=middle;align=center;" vertex="1" parent="1">
          <mxGeometry x="980" y="80" width="100" height="40" as="geometry" />
        </mxCell>
        <mxCell id="PWxaWAXkfzLJMrjovWpR-18" value="" style="rounded=0;whiteSpace=wrap;html=1;" vertex="1" parent="1">
          <mxGeometry x="90" y="160" width="360" height="480" as="geometry" />
        </mxCell>
        <mxCell id="PWxaWAXkfzLJMrjovWpR-19" value="" style="rounded=0;whiteSpace=wrap;html=1;" vertex="1" parent="1">
          <mxGeometry x="470" y="160" width="360" height="480" as="geometry" />
        </mxCell>
        <mxCell id="PWxaWAXkfzLJMrjovWpR-20" value="" style="rounded=0;whiteSpace=wrap;html=1;" vertex="1" parent="1">
          <mxGeometry x="900" y="330" width="360" height="40" as="geometry" />
        </mxCell>
        <mxCell id="PWxaWAXkfzLJMrjovWpR-21" value="" style="rounded=0;whiteSpace=wrap;html=1;" vertex="1" parent="1">
          <mxGeometry x="900" y="500" width="170" height="50" as="geometry" />
        </mxCell>
        <mxCell id="PWxaWAXkfzLJMrjovWpR-22" value="IMAGEN" style="text;html=1;strokeColor=none;fillColor=none;align=center;verticalAlign=middle;whiteSpace=wrap;rounded=0;" vertex="1" parent="1">
          <mxGeometry x="230" y="370" width="60" height="30" as="geometry" />
        </mxCell>
        <mxCell id="PWxaWAXkfzLJMrjovWpR-23" value="IMAGEN" style="text;html=1;strokeColor=none;fillColor=none;align=center;verticalAlign=middle;whiteSpace=wrap;rounded=0;" vertex="1" parent="1">
          <mxGeometry x="610.5" y="365" width="60" height="30" as="geometry" />
        </mxCell>
        <mxCell id="PWxaWAXkfzLJMrjovWpR-24" value="PRECIO" style="text;html=1;strokeColor=none;fillColor=none;align=center;verticalAlign=middle;whiteSpace=wrap;rounded=0;" vertex="1" parent="1">
          <mxGeometry x="920" y="280" width="60" height="30" as="geometry" />
        </mxCell>
        <mxCell id="PWxaWAXkfzLJMrjovWpR-25" value="NOMBRE COMPLETO DE LA PRENDA" style="text;html=1;strokeColor=none;fillColor=none;align=center;verticalAlign=middle;whiteSpace=wrap;rounded=0;" vertex="1" parent="1">
          <mxGeometry x="915" y="230" width="230" height="30" as="geometry" />
        </mxCell>
        <mxCell id="PWxaWAXkfzLJMrjovWpR-26" value="AÃ‘ADIR AL CARRITO" style="text;html=1;strokeColor=none;fillColor=none;align=center;verticalAlign=middle;whiteSpace=wrap;rounded=0;" vertex="1" parent="1">
          <mxGeometry x="910" y="510" width="70" height="30" as="geometry" />
        </mxCell>
        <mxCell id="PWxaWAXkfzLJMrjovWpR-27" value="SELECCIONE SU TALLA" style="text;html=1;strokeColor=none;fillColor=none;align=center;verticalAlign=middle;whiteSpace=wrap;rounded=0;" vertex="1" parent="1">
          <mxGeometry x="920" y="335" width="320" height="30" as="geometry" />
        </mxCell>
        <mxCell id="PWxaWAXkfzLJMrjovWpR-29" value="" style="rounded=0;whiteSpace=wrap;html=1;" vertex="1" parent="1">
          <mxGeometry x="900" y="400" width="145" height="40" as="geometry" />
        </mxCell>
        <mxCell id="PWxaWAXkfzLJMrjovWpR-30" value="COLORES DISPONIBLES" style="text;html=1;strokeColor=none;fillColor=none;align=center;verticalAlign=middle;whiteSpace=wrap;rounded=0;" vertex="1" parent="1">
          <mxGeometry x="910" y="405" width="130" height="30" as="geometry" />
        </mxCell>
        <mxCell id="PWxaWAXkfzLJMrjovWpR-31" value="&lt;font style=&quot;font-size: 36px;&quot; color=&quot;#FFFFFF&quot;&gt;ENTREGA Y PAGO DEL PRODUCTO&lt;/font&gt;" style="text;html=1;strokeColor=none;fillColor=none;align=center;verticalAlign=middle;whiteSpace=wrap;rounded=0;" vertex="1" parent="1">
          <mxGeometry x="490" y="780" width="480" height="30" as="geometry" />
        </mxCell>
        <mxCell id="PWxaWAXkfzLJMrjovWpR-32" value="&lt;font style=&quot;font-size: 36px;&quot; color=&quot;#FFFFFF&quot;&gt;ORIGEN DEL PRODUCTO&lt;/font&gt;" style="text;html=1;strokeColor=none;fillColor=none;align=center;verticalAlign=middle;whiteSpace=wrap;rounded=0;" vertex="1" parent="1">
          <mxGeometry x="1080" y="760" width="460" height="30" as="geometry" />
        </mxCell>
        <mxCell id="PWxaWAXkfzLJMrjovWpR-33" value="" style="shape=image;html=1;verticalAlign=top;verticalLabelPosition=bottom;labelBackgroundColor=#ffffff;imageAspect=0;aspect=fixed;image=https://cdn4.iconfinder.com/data/icons/business-black-1/64/45-128.png;fontSize=18;sketch=0;" vertex="1" parent="1">
          <mxGeometry x="140" y="46.5" width="53.5" height="53.5" as="geometry" />
        </mxCell>
        <mxCell id="PWxaWAXkfzLJMrjovWpR-34" value="" style="shape=image;html=1;verticalAlign=top;verticalLabelPosition=bottom;labelBackgroundColor=#ffffff;imageAspect=0;aspect=fixed;image=https://cdn4.iconfinder.com/data/icons/ionicons/512/icon-search-128.png;rounded=0;shadow=0;glass=0;sketch=0;fontFamily=Koulen;fontSource=https%3A%2F%2Ffonts.googleapis.com%2Fcss%3Ffamily%3DKoulen;fontSize=15;strokeColor=#0A0A0A;fillColor=#D3D5F0;" vertex="1" parent="1">
          <mxGeometry x="1215.5" y="50" width="50" height="50" as="geometry" />
        </mxCell>
        <mxCell id="PWxaWAXkfzLJMrjovWpR-36" value="" style="shape=image;html=1;verticalAlign=top;verticalLabelPosition=bottom;labelBackgroundColor=#ffffff;imageAspect=0;aspect=fixed;image=https://cdn3.iconfinder.com/data/icons/essential-rounded/64/Rounded-31-128.png;fontSize=18;" vertex="1" parent="1">
          <mxGeometry x="1350" y="50" width="52" height="52" as="geometry" />
        </mxCell>
        <mxCell id="PWxaWAXkfzLJMrjovWpR-37" value="&lt;span style=&quot;color: rgba(0, 0, 0, 0); font-family: monospace; font-size: 0px; text-align: start; background-color: rgb(248, 249, 250);&quot;&gt;%3CmxGraphModel%3E%3Croot%3E%3CmxCell%20id%3D%220%22%2F%3E%3CmxCell%20id%3D%221%22%20parent%3D%220%22%2F%3E%3CmxCell%20id%3D%222%22%20value%3D%22%22%20style%3D%22shape%3Dimage%3Bhtml%3D1%3BverticalAlign%3Dtop%3BverticalLabelPosition%3Dbottom%3BlabelBackgroundColor%3D%23ffffff%3BimageAspect%3D0%3Baspect%3Dfixed%3Bimage%3Dhttps%3A%2F%2Fcdn4.iconfinder.com%2Fdata%2Ficons%2Fionicons%2F512%2Ficon-search-128.png%3Brounded%3D0%3Bshadow%3D0%3Bglass%3D0%3Bsketch%3D0%3BfontFamily%3DKoulen%3BfontSource%3Dhttps%253A%252F%252Ffonts.googleapis.com%252Fcss%253Ffamily%253DKoulen%3BfontSize%3D15%3BstrokeColor%3D%230A0A0A%3BfillColor%3D%23D3D5F0%3B%22%20vertex%3D%221%22%20parent%3D%221%22%3E%3CmxGeometry%20x%3D%22933%22%20y%3D%2267%22%20width%3D%2230%22%20height%3D%2230%22%20as%3D%22geometry%22%2F%3E%3C%2FmxCell%3E%3C%2Froot%3E%3C%2FmxGraphModel%3E&lt;/span&gt;" style="html=1;verticalLabelPosition=bottom;align=center;labelBackgroundColor=#ffffff;verticalAlign=top;strokeWidth=1;strokeColor=#0A0A0A;shadow=0;dashed=0;shape=mxgraph.ios7.icons.shopping_cart;fontSize=18;fillColor=#0A0A0A;" vertex="1" parent="1">
          <mxGeometry x="1470" y="55.5" width="50" height="41" as="geometry" />
        </mxCell>
        <mxCell id="PWxaWAXkfzLJMrjovWpR-38" value="&lt;span style=&quot;color: rgba(0, 0, 0, 0); font-family: monospace; font-size: 0px; text-align: start; background-color: rgb(248, 249, 250);&quot;&gt;%3CmxGraphModel%3E%3Croot%3E%3CmxCell%20id%3D%220%22%2F%3E%3CmxCell%20id%3D%221%22%20parent%3D%220%22%2F%3E%3CmxCell%20id%3D%222%22%20value%3D%22%22%20style%3D%22shape%3Dimage%3Bhtml%3D1%3BverticalAlign%3Dtop%3BverticalLabelPosition%3Dbottom%3BlabelBackgroundColor%3D%23ffffff%3BimageAspect%3D0%3Baspect%3Dfixed%3Bimage%3Dhttps%3A%2F%2Fcdn4.iconfinder.com%2Fdata%2Ficons%2Fionicons%2F512%2Ficon-search-128.png%3Brounded%3D0%3Bshadow%3D0%3Bglass%3D0%3Bsketch%3D0%3BfontFamily%3DKoulen%3BfontSource%3Dhttps%253A%252F%252Ffonts.googleapis.com%252Fcss%253Ffamily%253DKoulen%3BfontSize%3D15%3BstrokeColor%3D%230A0A0A%3BfillColor%3D%23D3D5F0%3B%22%20vertex%3D%221%22%20parent%3D%221%22%3E%3CmxGeometry%20x%3D%22933%22%20y%3D%2267%22%20width%3D%2230%22%20height%3D%2230%22%20as%3D%22geometry%22%2F%3E%3C%2FmxCell%3E%3C%2Froot%3E%3C%2FmxGraphModel%3E&lt;/span&gt;" style="html=1;verticalLabelPosition=bottom;align=center;labelBackgroundColor=#ffffff;verticalAlign=top;strokeWidth=1;strokeColor=#0A0A0A;shadow=0;dashed=0;shape=mxgraph.ios7.icons.shopping_cart;fontSize=18;fillColor=#0A0A0A;" vertex="1" parent="1">
          <mxGeometry x="1010" y="504.5" width="50" height="41" as="geometry" />
        </mxCell>
      </root>
    </mxGraphModel>
  </diagram>
</mxfile>
